<?xml version="1.0" encoding="iso-8859-1"?>
<!-- Uploaded to: SVG Repo, www.svgrepo.com, Generator: SVG Repo Mixer Tools -->
<!DOCTYPE svg PUBLIC "-//W3C//DTD SVG 1.1//EN" "http://www.w3.org/Graphics/SVG/1.1/DTD/svg11.dtd">
<svg fill="#ffffff" version="1.1" id="Capa_1" xmlns="http://www.w3.org/2000/svg" xmlns:xlink="http://www.w3.org/1999/xlink"
	 width="800px" height="800px" viewBox="0 0 80 80" xml:space="preserve">
<g>
	<g>
		<rect x="16.181" y="50.955" width="47.221" height="0.947"/>
		<path d="M61.866,23.769H18.344v22.92h43.522V23.769z M32.607,33.136l-1.864,6.065c-0.366,1.204-0.646,1.375-1.656,1.375
			c-1.063,0-1.325-0.313-1.587-1.323l-1.254-5.002h-0.035l-1.254,5.002c-0.262,1.01-0.523,1.323-1.587,1.323
			c-1.01,0-1.29-0.174-1.655-1.375l-1.865-6.065c-0.086-0.278-0.175-0.558-0.175-0.941c0-0.663,0.594-1.185,1.238-1.185
			c0.941,0,1.08,0.505,1.255,1.238l1.342,5.577h0.035l1.08-5.072c0.209-0.993,0.419-1.778,1.604-1.743
			c1.203-0.035,1.447,0.732,1.674,1.743L29,37.824h0.035l1.255-5.577c0.156-0.733,0.313-1.238,1.254-1.238
			c0.646,0,1.238,0.522,1.238,1.185C32.782,32.578,32.695,32.857,32.607,33.136z M46.17,33.136l-1.863,6.065
			c-0.367,1.204-0.646,1.375-1.656,1.375c-1.063,0-1.325-0.313-1.586-1.323l-1.254-5.002h-0.036l-1.254,5.002
			c-0.262,1.01-0.523,1.323-1.587,1.323c-1.01,0-1.289-0.174-1.655-1.375l-1.865-6.065c-0.086-0.278-0.174-0.558-0.174-0.941
			c0-0.663,0.593-1.185,1.237-1.185c0.941,0,1.08,0.505,1.255,1.238l1.342,5.577h0.035l1.08-5.072
			c0.209-0.993,0.418-1.778,1.604-1.743c1.203-0.035,1.446,0.732,1.674,1.743l1.099,5.072H42.6l1.254-5.577
			c0.156-0.733,0.313-1.238,1.256-1.238c0.645,0,1.236,0.522,1.236,1.185C46.346,32.578,46.257,32.857,46.17,33.136z M59.732,33.136
			l-1.864,6.065c-0.366,1.204-0.646,1.375-1.656,1.375c-1.063,0-1.323-0.313-1.586-1.323l-1.254-5.002h-0.036l-1.254,5.002
			c-0.262,1.01-0.523,1.323-1.587,1.323c-1.011,0-1.289-0.174-1.655-1.375l-1.865-6.065c-0.086-0.278-0.174-0.558-0.174-0.941
			c0-0.663,0.592-1.185,1.237-1.185c0.94,0,1.08,0.505,1.255,1.238l1.342,5.577h0.035l1.08-5.072
			c0.21-0.993,0.418-1.778,1.604-1.743c1.203-0.035,1.446,0.732,1.674,1.743l1.099,5.072h0.035l1.254-5.577
			c0.158-0.733,0.313-1.238,1.256-1.238c0.646,0,1.237,0.522,1.237,1.185C59.907,32.578,59.818,32.857,59.732,33.136z"/>
		<path d="M40,0C17.908,0,0,17.909,0,40c0,22.091,17.908,40,40,40s40-17.909,40-40C80,17.909,62.092,0,40,0z M65.107,52.757
			c0,0.471-0.381,0.854-0.854,0.854H49.539l3.322,9.948c0.148,0.447-0.092,0.931-0.539,1.08c-0.09,0.029-0.182,0.044-0.271,0.044
			c-0.356,0-0.69-0.226-0.81-0.583l-3.504-10.489H32.226l-2.816,10.44c-0.104,0.381-0.448,0.632-0.823,0.632
			c-0.074,0-0.148-0.01-0.224-0.029c-0.455-0.123-0.725-0.592-0.602-1.047l2.696-9.998h-15.13c-0.472,0-0.854-0.382-0.854-0.854
			v-2.653c0-0.472,0.382-0.854,0.854-0.854h48.928c0.472,0,0.854,0.382,0.854,0.854v2.654H65.107z M16.638,47.543V22.916
			c0-0.471,0.382-0.854,0.853-0.854h45.229c0.471,0,0.854,0.382,0.854,0.854v24.627c0,0.472-0.383,0.854-0.854,0.854H17.49
			C17.02,48.396,16.638,48.014,16.638,47.543z M65.107,20.356c0,0.471-0.381,0.854-0.854,0.854H15.327
			c-0.472,0-0.854-0.382-0.854-0.854v-2.653c0-0.471,0.382-0.854,0.854-0.854h48.928c0.472,0,0.854,0.382,0.854,0.854v2.653H65.107z
			"/>
		<rect x="16.181" y="18.555" width="47.221" height="0.947"/>
	</g>
</g>
</svg>